<mxfile host="65bd71144e">
    <diagram id="C5RBs43oDa-KdzZeNtuy" name="Page-1">
        <mxGraphModel dx="898" dy="627" grid="1" gridSize="10" guides="1" tooltips="1" connect="1" arrows="1" fold="1" page="1" pageScale="1" pageWidth="827" pageHeight="1169" math="0" shadow="0">
            <root>
                <mxCell id="WIyWlLk6GJQsqaUBKTNV-0"/>
                <mxCell id="WIyWlLk6GJQsqaUBKTNV-1" parent="WIyWlLk6GJQsqaUBKTNV-0"/>
                <mxCell id="l9ePfGZxCvlpBDT2zceI-39" value="" style="edgeStyle=orthogonalEdgeStyle;rounded=0;orthogonalLoop=1;jettySize=auto;html=1;" parent="WIyWlLk6GJQsqaUBKTNV-1" source="l9ePfGZxCvlpBDT2zceI-40" target="l9ePfGZxCvlpBDT2zceI-47" edge="1">
                    <mxGeometry relative="1" as="geometry"/>
                </mxCell>
                <mxCell id="l9ePfGZxCvlpBDT2zceI-40" value="有缓存" style="rounded=1;whiteSpace=wrap;html=1;fontSize=12;glass=0;strokeWidth=1;shadow=0;" parent="WIyWlLk6GJQsqaUBKTNV-1" vertex="1">
                    <mxGeometry x="25" y="90" width="120" height="30" as="geometry"/>
                </mxCell>
                <mxCell id="l9ePfGZxCvlpBDT2zceI-41" value="" style="edgeStyle=orthogonalEdgeStyle;rounded=0;orthogonalLoop=1;jettySize=auto;html=1;entryX=0.5;entryY=0;entryDx=0;entryDy=0;" parent="WIyWlLk6GJQsqaUBKTNV-1" source="l9ePfGZxCvlpBDT2zceI-42" target="l9ePfGZxCvlpBDT2zceI-40" edge="1">
                    <mxGeometry relative="1" as="geometry">
                        <mxPoint x="150" y="70" as="targetPoint"/>
                    </mxGeometry>
                </mxCell>
                <mxCell id="l9ePfGZxCvlpBDT2zceI-42" value="浏览器请求" style="rounded=1;whiteSpace=wrap;html=1;fontSize=12;glass=0;strokeWidth=1;shadow=0;fillColor=#fad9d5;strokeColor=#ae4132;" parent="WIyWlLk6GJQsqaUBKTNV-1" vertex="1">
                    <mxGeometry x="25" y="20" width="120" height="40" as="geometry"/>
                </mxCell>
                <mxCell id="l9ePfGZxCvlpBDT2zceI-43" style="edgeStyle=orthogonalEdgeStyle;rounded=0;orthogonalLoop=1;jettySize=auto;html=1;" parent="WIyWlLk6GJQsqaUBKTNV-1" source="l9ePfGZxCvlpBDT2zceI-47" target="l9ePfGZxCvlpBDT2zceI-53" edge="1">
                    <mxGeometry relative="1" as="geometry"/>
                </mxCell>
                <mxCell id="l9ePfGZxCvlpBDT2zceI-44" value="是" style="edgeLabel;html=1;align=center;verticalAlign=middle;resizable=0;points=[];labelBorderColor=#80FF00;labelBackgroundColor=#00FF00;" parent="l9ePfGZxCvlpBDT2zceI-43" vertex="1" connectable="0">
                    <mxGeometry x="0.0333" y="-3" relative="1" as="geometry">
                        <mxPoint as="offset"/>
                    </mxGeometry>
                </mxCell>
                <mxCell id="l9ePfGZxCvlpBDT2zceI-45" style="edgeStyle=orthogonalEdgeStyle;rounded=0;orthogonalLoop=1;jettySize=auto;html=1;" parent="WIyWlLk6GJQsqaUBKTNV-1" source="l9ePfGZxCvlpBDT2zceI-47" target="l9ePfGZxCvlpBDT2zceI-54" edge="1">
                    <mxGeometry relative="1" as="geometry">
                        <mxPoint x="85" y="280" as="targetPoint"/>
                    </mxGeometry>
                </mxCell>
                <mxCell id="l9ePfGZxCvlpBDT2zceI-46" value="否" style="edgeLabel;html=1;align=center;verticalAlign=middle;resizable=0;points=[];labelBackgroundColor=#FF0000;fontColor=#E6E6E6;" parent="l9ePfGZxCvlpBDT2zceI-45" vertex="1" connectable="0">
                    <mxGeometry x="-0.1667" y="-2" relative="1" as="geometry">
                        <mxPoint as="offset"/>
                    </mxGeometry>
                </mxCell>
                <mxCell id="l9ePfGZxCvlpBDT2zceI-47" value="是否过期" style="rhombus;whiteSpace=wrap;html=1;shadow=0;fontFamily=Helvetica;fontSize=12;align=center;strokeWidth=1;spacing=6;spacingTop=-4;" parent="WIyWlLk6GJQsqaUBKTNV-1" vertex="1">
                    <mxGeometry x="20" y="155" width="130" height="70" as="geometry"/>
                </mxCell>
                <mxCell id="l9ePfGZxCvlpBDT2zceI-48" value="" style="edgeStyle=orthogonalEdgeStyle;rounded=0;orthogonalLoop=1;jettySize=auto;html=1;" parent="WIyWlLk6GJQsqaUBKTNV-1" source="l9ePfGZxCvlpBDT2zceI-53" target="l9ePfGZxCvlpBDT2zceI-58" edge="1">
                    <mxGeometry relative="1" as="geometry"/>
                </mxCell>
                <mxCell id="l9ePfGZxCvlpBDT2zceI-49" value="&lt;span style=&quot;color: rgba(0 , 0 , 0 , 0) ; font-family: monospace ; font-size: 0px ; background-color: rgb(248 , 249 , 250)&quot;&gt;%3CmxGraphModel%3E%3Croot%3E%3CmxCell%20id%3D%220%22%2F%3E%3CmxCell%20id%3D%221%22%20parent%3D%220%22%2F%3E%3CmxCell%20id%3D%222%22%20value%3D%22%E5%90%A6%22%20style%3D%22edgeLabel%3Bhtml%3D1%3Balign%3Dcenter%3BverticalAlign%3Dmiddle%3Bresizable%3D0%3Bpoints%3D%5B%5D%3BlabelBackgroundColor%3D%23FF0000%3BfontColor%3D%23E6E6E6%3B%22%20vertex%3D%221%22%20connectable%3D%220%22%20parent%3D%221%22%3E%3CmxGeometry%20x%3D%2283%22%20y%3D%22237.3529411764706%22%20as%3D%22geometry%22%2F%3E%3C%2FmxCell%3E%3C%2Froot%3E%3C%2FmxGraphModel%3E&lt;/span&gt;" style="edgeLabel;html=1;align=center;verticalAlign=middle;resizable=0;points=[];fontColor=#E6E6E6;" parent="l9ePfGZxCvlpBDT2zceI-48" vertex="1" connectable="0">
                    <mxGeometry x="-0.2494" y="-3" relative="1" as="geometry">
                        <mxPoint as="offset"/>
                    </mxGeometry>
                </mxCell>
                <mxCell id="l9ePfGZxCvlpBDT2zceI-50" value="否" style="edgeLabel;html=1;align=center;verticalAlign=middle;resizable=0;points=[];fontColor=#E6E6E6;labelBackgroundColor=#FF3333;" parent="l9ePfGZxCvlpBDT2zceI-48" vertex="1" connectable="0">
                    <mxGeometry x="-0.1082" y="1" relative="1" as="geometry">
                        <mxPoint as="offset"/>
                    </mxGeometry>
                </mxCell>
                <mxCell id="l9ePfGZxCvlpBDT2zceI-51" value="" style="edgeStyle=orthogonalEdgeStyle;rounded=0;orthogonalLoop=1;jettySize=auto;html=1;" parent="WIyWlLk6GJQsqaUBKTNV-1" source="l9ePfGZxCvlpBDT2zceI-53" target="l9ePfGZxCvlpBDT2zceI-62" edge="1">
                    <mxGeometry relative="1" as="geometry"/>
                </mxCell>
                <mxCell id="l9ePfGZxCvlpBDT2zceI-52" value="是" style="edgeLabel;html=1;align=center;verticalAlign=middle;resizable=0;points=[];labelBackgroundColor=#00FF00;" parent="l9ePfGZxCvlpBDT2zceI-51" vertex="1" connectable="0">
                    <mxGeometry x="-0.05" y="1" relative="1" as="geometry">
                        <mxPoint y="1" as="offset"/>
                    </mxGeometry>
                </mxCell>
                <mxCell id="l9ePfGZxCvlpBDT2zceI-53" value="Etag" style="rhombus;whiteSpace=wrap;html=1;shadow=0;fontFamily=Helvetica;fontSize=12;align=center;strokeWidth=1;spacing=6;spacingTop=-4;fillColor=#f5f5f5;strokeColor=#666666;fontColor=#333333;" parent="WIyWlLk6GJQsqaUBKTNV-1" vertex="1">
                    <mxGeometry x="220" y="150" width="130" height="80" as="geometry"/>
                </mxCell>
                <mxCell id="l9ePfGZxCvlpBDT2zceI-54" value="从缓存读取" style="rounded=1;whiteSpace=wrap;html=1;fontSize=12;glass=0;strokeWidth=1;shadow=0;fillColor=#bac8d3;strokeColor=#23445d;" parent="WIyWlLk6GJQsqaUBKTNV-1" vertex="1">
                    <mxGeometry x="25" y="280" width="120" height="40" as="geometry"/>
                </mxCell>
                <mxCell id="l9ePfGZxCvlpBDT2zceI-55" value="&lt;font style=&quot;background-color: rgb(255 , 0 , 0)&quot; color=&quot;#ffffff&quot;&gt;否&lt;/font&gt;" style="edgeStyle=orthogonalEdgeStyle;rounded=0;orthogonalLoop=1;jettySize=auto;html=1;" parent="WIyWlLk6GJQsqaUBKTNV-1" source="l9ePfGZxCvlpBDT2zceI-58" target="l9ePfGZxCvlpBDT2zceI-60" edge="1">
                    <mxGeometry relative="1" as="geometry"/>
                </mxCell>
                <mxCell id="l9ePfGZxCvlpBDT2zceI-56" value="" style="edgeStyle=orthogonalEdgeStyle;rounded=0;orthogonalLoop=1;jettySize=auto;html=1;" parent="WIyWlLk6GJQsqaUBKTNV-1" source="l9ePfGZxCvlpBDT2zceI-58" edge="1">
                    <mxGeometry relative="1" as="geometry">
                        <mxPoint x="430" y="320" as="targetPoint"/>
                    </mxGeometry>
                </mxCell>
                <mxCell id="l9ePfGZxCvlpBDT2zceI-57" value="是" style="edgeLabel;html=1;align=center;verticalAlign=middle;resizable=0;points=[];labelBackgroundColor=#00FF00;" parent="l9ePfGZxCvlpBDT2zceI-56" vertex="1" connectable="0">
                    <mxGeometry x="-0.125" relative="1" as="geometry">
                        <mxPoint as="offset"/>
                    </mxGeometry>
                </mxCell>
                <mxCell id="l9ePfGZxCvlpBDT2zceI-58" value="Last-Modified" style="rhombus;whiteSpace=wrap;html=1;shadow=0;fontFamily=Helvetica;fontSize=12;align=center;strokeWidth=1;spacing=6;spacingTop=-4;fillColor=#f5f5f5;strokeColor=#666666;fontColor=#333333;" parent="WIyWlLk6GJQsqaUBKTNV-1" vertex="1">
                    <mxGeometry x="220" y="280" width="130" height="80" as="geometry"/>
                </mxCell>
                <mxCell id="l9ePfGZxCvlpBDT2zceI-59" value="" style="edgeStyle=orthogonalEdgeStyle;rounded=0;orthogonalLoop=1;jettySize=auto;html=1;" parent="WIyWlLk6GJQsqaUBKTNV-1" source="l9ePfGZxCvlpBDT2zceI-60" target="l9ePfGZxCvlpBDT2zceI-61" edge="1">
                    <mxGeometry relative="1" as="geometry"/>
                </mxCell>
                <mxCell id="l9ePfGZxCvlpBDT2zceI-60" value="向服务器请求" style="rounded=1;whiteSpace=wrap;html=1;fontSize=12;glass=0;strokeWidth=1;shadow=0;fillColor=#b0e3e6;strokeColor=#0e8088;" parent="WIyWlLk6GJQsqaUBKTNV-1" vertex="1">
                    <mxGeometry x="225" y="410" width="120" height="40" as="geometry"/>
                </mxCell>
                <mxCell id="l9ePfGZxCvlpBDT2zceI-61" value="请求响应，缓存" style="rounded=1;whiteSpace=wrap;html=1;fontSize=12;glass=0;strokeWidth=1;shadow=0;" parent="WIyWlLk6GJQsqaUBKTNV-1" vertex="1">
                    <mxGeometry x="225" y="500" width="120" height="40" as="geometry"/>
                </mxCell>
                <mxCell id="l9ePfGZxCvlpBDT2zceI-62" value="请求头If-None-Match带上Etag的值" style="rounded=1;whiteSpace=wrap;html=1;fontSize=12;glass=0;strokeWidth=1;shadow=0;fillColor=#dae8fc;strokeColor=#6c8ebf;" parent="WIyWlLk6GJQsqaUBKTNV-1" vertex="1">
                    <mxGeometry x="430" y="170" width="120" height="40" as="geometry"/>
                </mxCell>
                <mxCell id="l9ePfGZxCvlpBDT2zceI-63" value="请求头&lt;br&gt;If- Modified-Since&lt;br&gt;带上&lt;br&gt;Last-Modified&lt;br&gt;的值" style="rounded=1;whiteSpace=wrap;html=1;fontSize=12;glass=0;strokeWidth=1;shadow=0;fillColor=#dae8fc;strokeColor=#6c8ebf;" parent="WIyWlLk6GJQsqaUBKTNV-1" vertex="1">
                    <mxGeometry x="430" y="285" width="120" height="75" as="geometry"/>
                </mxCell>
                <mxCell id="l9ePfGZxCvlpBDT2zceI-64" value="" style="edgeStyle=orthogonalEdgeStyle;rounded=0;orthogonalLoop=1;jettySize=auto;html=1;" parent="WIyWlLk6GJQsqaUBKTNV-1" source="l9ePfGZxCvlpBDT2zceI-65" edge="1">
                    <mxGeometry relative="1" as="geometry">
                        <mxPoint x="650" y="365" as="targetPoint"/>
                    </mxGeometry>
                </mxCell>
                <mxCell id="l9ePfGZxCvlpBDT2zceI-65" value="服务器" style="ellipse;shape=cloud;whiteSpace=wrap;html=1;fillColor=#fff2cc;strokeColor=#d6b656;" parent="WIyWlLk6GJQsqaUBKTNV-1" vertex="1">
                    <mxGeometry x="600" y="215" width="100" height="70" as="geometry"/>
                </mxCell>
                <mxCell id="l9ePfGZxCvlpBDT2zceI-66" value="" style="endArrow=classic;html=1;exitX=1;exitY=0.5;exitDx=0;exitDy=0;" parent="WIyWlLk6GJQsqaUBKTNV-1" source="l9ePfGZxCvlpBDT2zceI-63" target="l9ePfGZxCvlpBDT2zceI-65" edge="1">
                    <mxGeometry width="50" height="50" relative="1" as="geometry">
                        <mxPoint x="590" y="370" as="sourcePoint"/>
                        <mxPoint x="640" y="320" as="targetPoint"/>
                    </mxGeometry>
                </mxCell>
                <mxCell id="l9ePfGZxCvlpBDT2zceI-67" value="" style="endArrow=classic;html=1;" parent="WIyWlLk6GJQsqaUBKTNV-1" target="l9ePfGZxCvlpBDT2zceI-65" edge="1">
                    <mxGeometry width="50" height="50" relative="1" as="geometry">
                        <mxPoint x="550" y="190" as="sourcePoint"/>
                        <mxPoint x="600" y="140" as="targetPoint"/>
                    </mxGeometry>
                </mxCell>
                <mxCell id="l9ePfGZxCvlpBDT2zceI-68" value="完成" style="shape=tape;whiteSpace=wrap;html=1;fillColor=#d5e8d4;strokeColor=#82b366;" parent="WIyWlLk6GJQsqaUBKTNV-1" vertex="1">
                    <mxGeometry x="240" y="610" width="90" height="70" as="geometry"/>
                </mxCell>
                <mxCell id="l9ePfGZxCvlpBDT2zceI-69" value="" style="endArrow=classic;html=1;exitX=0.5;exitY=1;exitDx=0;exitDy=0;" parent="WIyWlLk6GJQsqaUBKTNV-1" source="l9ePfGZxCvlpBDT2zceI-54" edge="1">
                    <mxGeometry width="50" height="50" relative="1" as="geometry">
                        <mxPoint x="80" y="340" as="sourcePoint"/>
                        <mxPoint x="230" y="610" as="targetPoint"/>
                    </mxGeometry>
                </mxCell>
                <mxCell id="l9ePfGZxCvlpBDT2zceI-70" value="" style="endArrow=classic;html=1;exitX=0.5;exitY=1;exitDx=0;exitDy=0;" parent="WIyWlLk6GJQsqaUBKTNV-1" source="l9ePfGZxCvlpBDT2zceI-61" target="l9ePfGZxCvlpBDT2zceI-68" edge="1">
                    <mxGeometry width="50" height="50" relative="1" as="geometry">
                        <mxPoint x="460" y="530" as="sourcePoint"/>
                        <mxPoint x="510" y="480" as="targetPoint"/>
                    </mxGeometry>
                </mxCell>
                <mxCell id="l9ePfGZxCvlpBDT2zceI-71" value="从缓存读取" style="rounded=1;whiteSpace=wrap;html=1;fontSize=12;glass=0;strokeWidth=1;shadow=0;fillColor=#bac8d3;strokeColor=#23445d;" parent="WIyWlLk6GJQsqaUBKTNV-1" vertex="1">
                    <mxGeometry x="595" y="510" width="120" height="40" as="geometry"/>
                </mxCell>
                <mxCell id="l9ePfGZxCvlpBDT2zceI-72" value="" style="edgeStyle=orthogonalEdgeStyle;rounded=0;orthogonalLoop=1;jettySize=auto;html=1;" parent="WIyWlLk6GJQsqaUBKTNV-1" source="l9ePfGZxCvlpBDT2zceI-74" target="l9ePfGZxCvlpBDT2zceI-71" edge="1">
                    <mxGeometry relative="1" as="geometry"/>
                </mxCell>
                <mxCell id="l9ePfGZxCvlpBDT2zceI-73" value="304" style="edgeLabel;html=1;align=center;verticalAlign=middle;resizable=0;points=[];" parent="l9ePfGZxCvlpBDT2zceI-72" vertex="1" connectable="0">
                    <mxGeometry x="-0.2" y="-2" relative="1" as="geometry">
                        <mxPoint as="offset"/>
                    </mxGeometry>
                </mxCell>
                <mxCell id="l9ePfGZxCvlpBDT2zceI-74" value="200 or 304" style="rhombus;whiteSpace=wrap;html=1;shadow=0;fontFamily=Helvetica;fontSize=12;align=center;strokeWidth=1;spacing=6;spacingTop=-4;fillColor=#e1d5e7;strokeColor=#9673a6;" parent="WIyWlLk6GJQsqaUBKTNV-1" vertex="1">
                    <mxGeometry x="590" y="370" width="130" height="80" as="geometry"/>
                </mxCell>
                <mxCell id="l9ePfGZxCvlpBDT2zceI-75" value="" style="endArrow=classic;html=1;" parent="WIyWlLk6GJQsqaUBKTNV-1" edge="1">
                    <mxGeometry width="50" height="50" relative="1" as="geometry">
                        <mxPoint x="590" y="540" as="sourcePoint"/>
                        <mxPoint x="350" y="630" as="targetPoint"/>
                    </mxGeometry>
                </mxCell>
                <mxCell id="l9ePfGZxCvlpBDT2zceI-76" value="" style="endArrow=classic;html=1;fontColor=#000000;exitX=0;exitY=0.5;exitDx=0;exitDy=0;entryX=1;entryY=0.5;entryDx=0;entryDy=0;" parent="WIyWlLk6GJQsqaUBKTNV-1" source="l9ePfGZxCvlpBDT2zceI-74" target="l9ePfGZxCvlpBDT2zceI-61" edge="1">
                    <mxGeometry width="50" height="50" relative="1" as="geometry">
                        <mxPoint x="550" y="440" as="sourcePoint"/>
                        <mxPoint x="600" y="390" as="targetPoint"/>
                    </mxGeometry>
                </mxCell>
                <mxCell id="l9ePfGZxCvlpBDT2zceI-77" value="200&lt;br&gt;" style="text;html=1;align=center;verticalAlign=middle;resizable=0;points=[];autosize=1;fontColor=#000000;" parent="WIyWlLk6GJQsqaUBKTNV-1" vertex="1">
                    <mxGeometry x="460" y="462" width="40" height="20" as="geometry"/>
                </mxCell>
            </root>
        </mxGraphModel>
    </diagram>
</mxfile>